M48
; DRILL file {KiCad (5.1.10)-1} date 05/12/21 23:01:42
; FORMAT={-:-/ absolute / inch / decimal}
; #@! TF.CreationDate,2021-05-12T23:01:42-04:00
; #@! TF.GenerationSoftware,Kicad,Pcbnew,(5.1.10)-1
; #@! TF.FileFunction,Plated,1,2,PTH
FMAT,2
INCH
T1C0.0157
T2C0.0276
T3C0.0579
%
G90
G05
T1
X3.6562Y-4.25
X3.9688Y-3.5312
X4.295Y-3.845
X4.295Y-4.035
X4.4299Y-4.062
X4.745Y-4.06
X4.9Y-4.28
X4.985Y-3.895
X5.225Y-4.15
X5.975Y-4.15
T3
X5.225Y-3.4
X5.225Y-4.15
X5.2766Y-3.3425
X5.2766Y-4.0925
X5.4734Y-3.3228
X5.4734Y-4.0728
X5.475Y-3.3
X5.475Y-4.05
X5.975Y-3.4
X5.975Y-4.15
X6.0266Y-3.3425
X6.0266Y-4.0925
X6.2234Y-3.3228
X6.2234Y-4.0728
X6.225Y-3.3
X6.225Y-4.05
T2
G00X2.6688Y-3.1714
M15
G01X2.6688Y-3.2186
M16
G05
G00X2.6688Y-3.3485
M15
G01X2.6688Y-3.3958
M16
G05
G00X2.9562Y-3.1714
M15
G01X2.9562Y-3.2186
M16
G05
G00X2.9562Y-3.3485
M15
G01X2.9562Y-3.3958
M16
G05
T0
M30
