%TF.GenerationSoftware,KiCad,Pcbnew,(5.1.10)-1*%
%TF.CreationDate,2021-05-12T23:01:37-04:00*%
%TF.ProjectId,SwagPad,53776167-5061-4642-9e6b-696361645f70,rev?*%
%TF.SameCoordinates,Original*%
%TF.FileFunction,Soldermask,Bot*%
%TF.FilePolarity,Negative*%
%FSLAX46Y46*%
G04 Gerber Fmt 4.6, Leading zero omitted, Abs format (unit mm)*
G04 Created by KiCad (PCBNEW (5.1.10)-1) date 2021-05-12 23:01:37*
%MOMM*%
%LPD*%
G01*
G04 APERTURE LIST*
%ADD10R,1.400000X1.200000*%
%ADD11O,1.700000X2.700000*%
%ADD12R,0.500000X2.250000*%
%ADD13R,0.550000X1.500000*%
%ADD14R,1.500000X0.550000*%
%ADD15R,1.800000X1.100000*%
%ADD16C,1.750000*%
%ADD17C,2.250000*%
%ADD18C,3.987800*%
%ADD19R,1.200000X0.900000*%
G04 APERTURE END LIST*
D10*
%TO.C,Y1*%
X117686000Y-87129250D03*
X115486000Y-87129250D03*
X115486000Y-88829250D03*
X117686000Y-88829250D03*
%TD*%
D11*
%TO.C,USB1*%
X67787500Y-81153000D03*
X75087500Y-81153000D03*
X75087500Y-85653000D03*
X67787500Y-85653000D03*
D12*
X69837500Y-85653000D03*
X70637500Y-85653000D03*
X71437500Y-85653000D03*
X72237500Y-85653000D03*
X73037500Y-85653000D03*
%TD*%
D13*
%TO.C,U1*%
X112507500Y-104981750D03*
X113307500Y-104981750D03*
X114107500Y-104981750D03*
X114907500Y-104981750D03*
X115707500Y-104981750D03*
X116507500Y-104981750D03*
X117307500Y-104981750D03*
X118107500Y-104981750D03*
X118907500Y-104981750D03*
X119707500Y-104981750D03*
X120507500Y-104981750D03*
D14*
X122207500Y-103281750D03*
X122207500Y-102481750D03*
X122207500Y-101681750D03*
X122207500Y-100881750D03*
X122207500Y-100081750D03*
X122207500Y-99281750D03*
X122207500Y-98481750D03*
X122207500Y-97681750D03*
X122207500Y-96881750D03*
X122207500Y-96081750D03*
X122207500Y-95281750D03*
D13*
X120507500Y-93581750D03*
X119707500Y-93581750D03*
X118907500Y-93581750D03*
X118107500Y-93581750D03*
X117307500Y-93581750D03*
X116507500Y-93581750D03*
X115707500Y-93581750D03*
X114907500Y-93581750D03*
X114107500Y-93581750D03*
X113307500Y-93581750D03*
X112507500Y-93581750D03*
D14*
X110807500Y-95281750D03*
X110807500Y-96081750D03*
X110807500Y-96881750D03*
X110807500Y-97681750D03*
X110807500Y-98481750D03*
X110807500Y-99281750D03*
X110807500Y-100081750D03*
X110807500Y-100881750D03*
X110807500Y-101681750D03*
X110807500Y-102481750D03*
X110807500Y-103281750D03*
%TD*%
D15*
%TO.C,SW1*%
X89543750Y-111650000D03*
X83343750Y-107950000D03*
X89543750Y-107950000D03*
X83343750Y-111650000D03*
%TD*%
%TO.C,R4*%
G36*
G01*
X125862501Y-104493750D02*
X124962499Y-104493750D01*
G75*
G02*
X124712500Y-104243751I0J249999D01*
G01*
X124712500Y-103718749D01*
G75*
G02*
X124962499Y-103468750I249999J0D01*
G01*
X125862501Y-103468750D01*
G75*
G02*
X126112500Y-103718749I0J-249999D01*
G01*
X126112500Y-104243751D01*
G75*
G02*
X125862501Y-104493750I-249999J0D01*
G01*
G37*
G36*
G01*
X125862501Y-106318750D02*
X124962499Y-106318750D01*
G75*
G02*
X124712500Y-106068751I0J249999D01*
G01*
X124712500Y-105543749D01*
G75*
G02*
X124962499Y-105293750I249999J0D01*
G01*
X125862501Y-105293750D01*
G75*
G02*
X126112500Y-105543749I0J-249999D01*
G01*
X126112500Y-106068751D01*
G75*
G02*
X125862501Y-106318750I-249999J0D01*
G01*
G37*
%TD*%
%TO.C,R3*%
G36*
G01*
X104780501Y-90333250D02*
X103880499Y-90333250D01*
G75*
G02*
X103630500Y-90083251I0J249999D01*
G01*
X103630500Y-89558249D01*
G75*
G02*
X103880499Y-89308250I249999J0D01*
G01*
X104780501Y-89308250D01*
G75*
G02*
X105030500Y-89558249I0J-249999D01*
G01*
X105030500Y-90083251D01*
G75*
G02*
X104780501Y-90333250I-249999J0D01*
G01*
G37*
G36*
G01*
X104780501Y-92158250D02*
X103880499Y-92158250D01*
G75*
G02*
X103630500Y-91908251I0J249999D01*
G01*
X103630500Y-91383249D01*
G75*
G02*
X103880499Y-91133250I249999J0D01*
G01*
X104780501Y-91133250D01*
G75*
G02*
X105030500Y-91383249I0J-249999D01*
G01*
X105030500Y-91908251D01*
G75*
G02*
X104780501Y-92158250I-249999J0D01*
G01*
G37*
%TD*%
%TO.C,R2*%
G36*
G01*
X74268751Y-91000000D02*
X73368749Y-91000000D01*
G75*
G02*
X73118750Y-90750001I0J249999D01*
G01*
X73118750Y-90224999D01*
G75*
G02*
X73368749Y-89975000I249999J0D01*
G01*
X74268751Y-89975000D01*
G75*
G02*
X74518750Y-90224999I0J-249999D01*
G01*
X74518750Y-90750001D01*
G75*
G02*
X74268751Y-91000000I-249999J0D01*
G01*
G37*
G36*
G01*
X74268751Y-92825000D02*
X73368749Y-92825000D01*
G75*
G02*
X73118750Y-92575001I0J249999D01*
G01*
X73118750Y-92049999D01*
G75*
G02*
X73368749Y-91800000I249999J0D01*
G01*
X74268751Y-91800000D01*
G75*
G02*
X74518750Y-92049999I0J-249999D01*
G01*
X74518750Y-92575001D01*
G75*
G02*
X74268751Y-92825000I-249999J0D01*
G01*
G37*
%TD*%
%TO.C,R1*%
G36*
G01*
X70300001Y-91000000D02*
X69399999Y-91000000D01*
G75*
G02*
X69150000Y-90750001I0J249999D01*
G01*
X69150000Y-90224999D01*
G75*
G02*
X69399999Y-89975000I249999J0D01*
G01*
X70300001Y-89975000D01*
G75*
G02*
X70550000Y-90224999I0J-249999D01*
G01*
X70550000Y-90750001D01*
G75*
G02*
X70300001Y-91000000I-249999J0D01*
G01*
G37*
G36*
G01*
X70300001Y-92825000D02*
X69399999Y-92825000D01*
G75*
G02*
X69150000Y-92575001I0J249999D01*
G01*
X69150000Y-92049999D01*
G75*
G02*
X69399999Y-91800000I249999J0D01*
G01*
X70300001Y-91800000D01*
G75*
G02*
X70550000Y-92049999I0J-249999D01*
G01*
X70550000Y-92575001D01*
G75*
G02*
X70300001Y-92825000I-249999J0D01*
G01*
G37*
%TD*%
D16*
%TO.C,MX4*%
X160655000Y-107950000D03*
X150495000Y-107950000D03*
D17*
X153075000Y-103950000D03*
D18*
X155575000Y-107950000D03*
G36*
G01*
X151013688Y-106247350D02*
X151013683Y-106247345D01*
G75*
G02*
X150927655Y-104658683I751317J837345D01*
G01*
X152237657Y-103198683D01*
G75*
G02*
X153826319Y-103112655I837345J-751317D01*
G01*
X153826319Y-103112655D01*
G75*
G02*
X153912347Y-104701317I-751317J-837345D01*
G01*
X152602345Y-106161317D01*
G75*
G02*
X151013683Y-106247345I-837345J751317D01*
G01*
G37*
D17*
X158115000Y-102870000D03*
G36*
G01*
X157998483Y-104572395D02*
X157997597Y-104572334D01*
G75*
G02*
X156952666Y-103372597I77403J1122334D01*
G01*
X156992666Y-102792597D01*
G75*
G02*
X158192403Y-101747666I1122334J-77403D01*
G01*
X158192403Y-101747666D01*
G75*
G02*
X159237334Y-102947403I-77403J-1122334D01*
G01*
X159197334Y-103527403D01*
G75*
G02*
X157997597Y-104572334I-1122334J77403D01*
G01*
G37*
%TD*%
%TO.C,MX3*%
G36*
G01*
X157998483Y-85522395D02*
X157997597Y-85522334D01*
G75*
G02*
X156952666Y-84322597I77403J1122334D01*
G01*
X156992666Y-83742597D01*
G75*
G02*
X158192403Y-82697666I1122334J-77403D01*
G01*
X158192403Y-82697666D01*
G75*
G02*
X159237334Y-83897403I-77403J-1122334D01*
G01*
X159197334Y-84477403D01*
G75*
G02*
X157997597Y-85522334I-1122334J77403D01*
G01*
G37*
X158115000Y-83820000D03*
G36*
G01*
X151013688Y-87197350D02*
X151013683Y-87197345D01*
G75*
G02*
X150927655Y-85608683I751317J837345D01*
G01*
X152237657Y-84148683D01*
G75*
G02*
X153826319Y-84062655I837345J-751317D01*
G01*
X153826319Y-84062655D01*
G75*
G02*
X153912347Y-85651317I-751317J-837345D01*
G01*
X152602345Y-87111317D01*
G75*
G02*
X151013683Y-87197345I-837345J751317D01*
G01*
G37*
D18*
X155575000Y-88900000D03*
D17*
X153075000Y-84900000D03*
D16*
X150495000Y-88900000D03*
X160655000Y-88900000D03*
%TD*%
%TO.C,MX2*%
X141605000Y-107950000D03*
X131445000Y-107950000D03*
D17*
X134025000Y-103950000D03*
D18*
X136525000Y-107950000D03*
G36*
G01*
X131963688Y-106247350D02*
X131963683Y-106247345D01*
G75*
G02*
X131877655Y-104658683I751317J837345D01*
G01*
X133187657Y-103198683D01*
G75*
G02*
X134776319Y-103112655I837345J-751317D01*
G01*
X134776319Y-103112655D01*
G75*
G02*
X134862347Y-104701317I-751317J-837345D01*
G01*
X133552345Y-106161317D01*
G75*
G02*
X131963683Y-106247345I-837345J751317D01*
G01*
G37*
D17*
X139065000Y-102870000D03*
G36*
G01*
X138948483Y-104572395D02*
X138947597Y-104572334D01*
G75*
G02*
X137902666Y-103372597I77403J1122334D01*
G01*
X137942666Y-102792597D01*
G75*
G02*
X139142403Y-101747666I1122334J-77403D01*
G01*
X139142403Y-101747666D01*
G75*
G02*
X140187334Y-102947403I-77403J-1122334D01*
G01*
X140147334Y-103527403D01*
G75*
G02*
X138947597Y-104572334I-1122334J77403D01*
G01*
G37*
%TD*%
%TO.C,MX1*%
G36*
G01*
X138948483Y-85522395D02*
X138947597Y-85522334D01*
G75*
G02*
X137902666Y-84322597I77403J1122334D01*
G01*
X137942666Y-83742597D01*
G75*
G02*
X139142403Y-82697666I1122334J-77403D01*
G01*
X139142403Y-82697666D01*
G75*
G02*
X140187334Y-83897403I-77403J-1122334D01*
G01*
X140147334Y-84477403D01*
G75*
G02*
X138947597Y-85522334I-1122334J77403D01*
G01*
G37*
X139065000Y-83820000D03*
G36*
G01*
X131963688Y-87197350D02*
X131963683Y-87197345D01*
G75*
G02*
X131877655Y-85608683I751317J837345D01*
G01*
X133187657Y-84148683D01*
G75*
G02*
X134776319Y-84062655I837345J-751317D01*
G01*
X134776319Y-84062655D01*
G75*
G02*
X134862347Y-85651317I-751317J-837345D01*
G01*
X133552345Y-87111317D01*
G75*
G02*
X131963683Y-87197345I-837345J751317D01*
G01*
G37*
D18*
X136525000Y-88900000D03*
D17*
X134025000Y-84900000D03*
D16*
X131445000Y-88900000D03*
X141605000Y-88900000D03*
%TD*%
%TO.C,F1*%
G36*
G01*
X67300000Y-97462500D02*
X66050000Y-97462500D01*
G75*
G02*
X65800000Y-97212500I0J250000D01*
G01*
X65800000Y-96462500D01*
G75*
G02*
X66050000Y-96212500I250000J0D01*
G01*
X67300000Y-96212500D01*
G75*
G02*
X67550000Y-96462500I0J-250000D01*
G01*
X67550000Y-97212500D01*
G75*
G02*
X67300000Y-97462500I-250000J0D01*
G01*
G37*
G36*
G01*
X67300000Y-100262500D02*
X66050000Y-100262500D01*
G75*
G02*
X65800000Y-100012500I0J250000D01*
G01*
X65800000Y-99262500D01*
G75*
G02*
X66050000Y-99012500I250000J0D01*
G01*
X67300000Y-99012500D01*
G75*
G02*
X67550000Y-99262500I0J-250000D01*
G01*
X67550000Y-100012500D01*
G75*
G02*
X67300000Y-100262500I-250000J0D01*
G01*
G37*
%TD*%
D19*
%TO.C,D4*%
X163512500Y-106362500D03*
X163512500Y-109662500D03*
%TD*%
%TO.C,D3*%
X163512500Y-87250000D03*
X163512500Y-90550000D03*
%TD*%
%TO.C,D2*%
X144462500Y-106237500D03*
X144462500Y-109537500D03*
%TD*%
%TO.C,D1*%
X144462500Y-87250000D03*
X144462500Y-90550000D03*
%TD*%
%TO.C,C7*%
G36*
G01*
X113318750Y-109218750D02*
X113318750Y-108268750D01*
G75*
G02*
X113568750Y-108018750I250000J0D01*
G01*
X114068750Y-108018750D01*
G75*
G02*
X114318750Y-108268750I0J-250000D01*
G01*
X114318750Y-109218750D01*
G75*
G02*
X114068750Y-109468750I-250000J0D01*
G01*
X113568750Y-109468750D01*
G75*
G02*
X113318750Y-109218750I0J250000D01*
G01*
G37*
G36*
G01*
X111418750Y-109218750D02*
X111418750Y-108268750D01*
G75*
G02*
X111668750Y-108018750I250000J0D01*
G01*
X112168750Y-108018750D01*
G75*
G02*
X112418750Y-108268750I0J-250000D01*
G01*
X112418750Y-109218750D01*
G75*
G02*
X112168750Y-109468750I-250000J0D01*
G01*
X111668750Y-109468750D01*
G75*
G02*
X111418750Y-109218750I0J250000D01*
G01*
G37*
%TD*%
%TO.C,C6*%
G36*
G01*
X107917000Y-90325750D02*
X106967000Y-90325750D01*
G75*
G02*
X106717000Y-90075750I0J250000D01*
G01*
X106717000Y-89575750D01*
G75*
G02*
X106967000Y-89325750I250000J0D01*
G01*
X107917000Y-89325750D01*
G75*
G02*
X108167000Y-89575750I0J-250000D01*
G01*
X108167000Y-90075750D01*
G75*
G02*
X107917000Y-90325750I-250000J0D01*
G01*
G37*
G36*
G01*
X107917000Y-92225750D02*
X106967000Y-92225750D01*
G75*
G02*
X106717000Y-91975750I0J250000D01*
G01*
X106717000Y-91475750D01*
G75*
G02*
X106967000Y-91225750I250000J0D01*
G01*
X107917000Y-91225750D01*
G75*
G02*
X108167000Y-91475750I0J-250000D01*
G01*
X108167000Y-91975750D01*
G75*
G02*
X107917000Y-92225750I-250000J0D01*
G01*
G37*
%TD*%
%TO.C,C5*%
G36*
G01*
X105912500Y-97727750D02*
X105912500Y-98677750D01*
G75*
G02*
X105662500Y-98927750I-250000J0D01*
G01*
X105162500Y-98927750D01*
G75*
G02*
X104912500Y-98677750I0J250000D01*
G01*
X104912500Y-97727750D01*
G75*
G02*
X105162500Y-97477750I250000J0D01*
G01*
X105662500Y-97477750D01*
G75*
G02*
X105912500Y-97727750I0J-250000D01*
G01*
G37*
G36*
G01*
X107812500Y-97727750D02*
X107812500Y-98677750D01*
G75*
G02*
X107562500Y-98927750I-250000J0D01*
G01*
X107062500Y-98927750D01*
G75*
G02*
X106812500Y-98677750I0J250000D01*
G01*
X106812500Y-97727750D01*
G75*
G02*
X107062500Y-97477750I250000J0D01*
G01*
X107562500Y-97477750D01*
G75*
G02*
X107812500Y-97727750I0J-250000D01*
G01*
G37*
%TD*%
%TO.C,C4*%
G36*
G01*
X112237500Y-88426750D02*
X113187500Y-88426750D01*
G75*
G02*
X113437500Y-88676750I0J-250000D01*
G01*
X113437500Y-89176750D01*
G75*
G02*
X113187500Y-89426750I-250000J0D01*
G01*
X112237500Y-89426750D01*
G75*
G02*
X111987500Y-89176750I0J250000D01*
G01*
X111987500Y-88676750D01*
G75*
G02*
X112237500Y-88426750I250000J0D01*
G01*
G37*
G36*
G01*
X112237500Y-86526750D02*
X113187500Y-86526750D01*
G75*
G02*
X113437500Y-86776750I0J-250000D01*
G01*
X113437500Y-87276750D01*
G75*
G02*
X113187500Y-87526750I-250000J0D01*
G01*
X112237500Y-87526750D01*
G75*
G02*
X111987500Y-87276750I0J250000D01*
G01*
X111987500Y-86776750D01*
G75*
G02*
X112237500Y-86526750I250000J0D01*
G01*
G37*
%TD*%
%TO.C,C3*%
G36*
G01*
X121188500Y-87531750D02*
X120238500Y-87531750D01*
G75*
G02*
X119988500Y-87281750I0J250000D01*
G01*
X119988500Y-86781750D01*
G75*
G02*
X120238500Y-86531750I250000J0D01*
G01*
X121188500Y-86531750D01*
G75*
G02*
X121438500Y-86781750I0J-250000D01*
G01*
X121438500Y-87281750D01*
G75*
G02*
X121188500Y-87531750I-250000J0D01*
G01*
G37*
G36*
G01*
X121188500Y-89431750D02*
X120238500Y-89431750D01*
G75*
G02*
X119988500Y-89181750I0J250000D01*
G01*
X119988500Y-88681750D01*
G75*
G02*
X120238500Y-88431750I250000J0D01*
G01*
X121188500Y-88431750D01*
G75*
G02*
X121438500Y-88681750I0J-250000D01*
G01*
X121438500Y-89181750D01*
G75*
G02*
X121188500Y-89431750I-250000J0D01*
G01*
G37*
%TD*%
%TO.C,C2*%
G36*
G01*
X119821500Y-108268750D02*
X119821500Y-109218750D01*
G75*
G02*
X119571500Y-109468750I-250000J0D01*
G01*
X119071500Y-109468750D01*
G75*
G02*
X118821500Y-109218750I0J250000D01*
G01*
X118821500Y-108268750D01*
G75*
G02*
X119071500Y-108018750I250000J0D01*
G01*
X119571500Y-108018750D01*
G75*
G02*
X119821500Y-108268750I0J-250000D01*
G01*
G37*
G36*
G01*
X121721500Y-108268750D02*
X121721500Y-109218750D01*
G75*
G02*
X121471500Y-109468750I-250000J0D01*
G01*
X120971500Y-109468750D01*
G75*
G02*
X120721500Y-109218750I0J250000D01*
G01*
X120721500Y-108268750D01*
G75*
G02*
X120971500Y-108018750I250000J0D01*
G01*
X121471500Y-108018750D01*
G75*
G02*
X121721500Y-108268750I0J-250000D01*
G01*
G37*
%TD*%
%TO.C,C1*%
G36*
G01*
X126395500Y-94770750D02*
X125445500Y-94770750D01*
G75*
G02*
X125195500Y-94520750I0J250000D01*
G01*
X125195500Y-94020750D01*
G75*
G02*
X125445500Y-93770750I250000J0D01*
G01*
X126395500Y-93770750D01*
G75*
G02*
X126645500Y-94020750I0J-250000D01*
G01*
X126645500Y-94520750D01*
G75*
G02*
X126395500Y-94770750I-250000J0D01*
G01*
G37*
G36*
G01*
X126395500Y-96670750D02*
X125445500Y-96670750D01*
G75*
G02*
X125195500Y-96420750I0J250000D01*
G01*
X125195500Y-95920750D01*
G75*
G02*
X125445500Y-95670750I250000J0D01*
G01*
X126395500Y-95670750D01*
G75*
G02*
X126645500Y-95920750I0J-250000D01*
G01*
X126645500Y-96420750D01*
G75*
G02*
X126395500Y-96670750I-250000J0D01*
G01*
G37*
%TD*%
M02*
