%TF.GenerationSoftware,KiCad,Pcbnew,(5.1.10)-1*%
%TF.CreationDate,2021-05-12T23:01:37-04:00*%
%TF.ProjectId,SwagPad,53776167-5061-4642-9e6b-696361645f70,rev?*%
%TF.SameCoordinates,Original*%
%TF.FileFunction,Legend,Top*%
%TF.FilePolarity,Positive*%
%FSLAX46Y46*%
G04 Gerber Fmt 4.6, Leading zero omitted, Abs format (unit mm)*
G04 Created by KiCad (PCBNEW (5.1.10)-1) date 2021-05-12 23:01:37*
%MOMM*%
%LPD*%
G01*
G04 APERTURE LIST*
%ADD10C,0.250000*%
%ADD11O,1.700000X2.700000*%
%ADD12C,1.750000*%
%ADD13C,3.987800*%
G04 APERTURE END LIST*
D10*
X66612797Y-113220535D02*
X67184226Y-113411011D01*
X67374702Y-113601488D01*
X67565178Y-113982440D01*
X67565178Y-114553869D01*
X67374702Y-114934821D01*
X67184226Y-115125297D01*
X66803273Y-115315773D01*
X65279464Y-115315773D01*
X65279464Y-111315773D01*
X66612797Y-111315773D01*
X66993749Y-111506250D01*
X67184226Y-111696726D01*
X67374702Y-112077678D01*
X67374702Y-112458630D01*
X67184226Y-112839583D01*
X66993749Y-113030059D01*
X66612797Y-113220535D01*
X65279464Y-113220535D01*
X69850892Y-115315773D02*
X69469940Y-115125297D01*
X69279464Y-114934821D01*
X69088988Y-114553869D01*
X69088988Y-113411011D01*
X69279464Y-113030059D01*
X69469940Y-112839583D01*
X69850892Y-112649107D01*
X70422321Y-112649107D01*
X70803273Y-112839583D01*
X70993750Y-113030059D01*
X71184226Y-113411011D01*
X71184226Y-114553869D01*
X70993750Y-114934821D01*
X70803273Y-115125297D01*
X70422321Y-115315773D01*
X69850892Y-115315773D01*
X72708035Y-115125297D02*
X73088988Y-115315773D01*
X73850892Y-115315773D01*
X74231845Y-115125297D01*
X74422321Y-114744345D01*
X74422321Y-114553869D01*
X74231845Y-114172916D01*
X73850892Y-113982440D01*
X73279464Y-113982440D01*
X72898511Y-113791964D01*
X72708035Y-113411011D01*
X72708035Y-113220535D01*
X72898511Y-112839583D01*
X73279464Y-112649107D01*
X73850892Y-112649107D01*
X74231845Y-112839583D01*
X75946130Y-115125297D02*
X76327083Y-115315773D01*
X77088988Y-115315773D01*
X77469940Y-115125297D01*
X77660416Y-114744345D01*
X77660416Y-114553869D01*
X77469940Y-114172916D01*
X77088988Y-113982440D01*
X76517559Y-113982440D01*
X76136607Y-113791964D01*
X75946130Y-113411011D01*
X75946130Y-113220535D01*
X76136607Y-112839583D01*
X76517559Y-112649107D01*
X77088988Y-112649107D01*
X77469940Y-112839583D01*
X79374702Y-115315773D02*
X79374702Y-111315773D01*
X80898511Y-111315773D01*
X81279464Y-111506250D01*
X81469940Y-111696726D01*
X81660416Y-112077678D01*
X81660416Y-112649107D01*
X81469940Y-113030059D01*
X81279464Y-113220535D01*
X80898511Y-113411011D01*
X79374702Y-113411011D01*
X85088988Y-115315773D02*
X85088988Y-113220535D01*
X84898511Y-112839583D01*
X84517559Y-112649107D01*
X83755654Y-112649107D01*
X83374702Y-112839583D01*
X85088988Y-115125297D02*
X84708035Y-115315773D01*
X83755654Y-115315773D01*
X83374702Y-115125297D01*
X83184226Y-114744345D01*
X83184226Y-114363392D01*
X83374702Y-113982440D01*
X83755654Y-113791964D01*
X84708035Y-113791964D01*
X85088988Y-113601488D01*
X88708035Y-115315773D02*
X88708035Y-111315773D01*
X88708035Y-115125297D02*
X88327083Y-115315773D01*
X87565178Y-115315773D01*
X87184226Y-115125297D01*
X86993750Y-114934821D01*
X86803273Y-114553869D01*
X86803273Y-113411011D01*
X86993750Y-113030059D01*
X87184226Y-112839583D01*
X87565178Y-112649107D01*
X88327083Y-112649107D01*
X88708035Y-112839583D01*
%LPC*%
D11*
%TO.C,USB1*%
X67787500Y-81153000D03*
X75087500Y-81153000D03*
X75087500Y-85653000D03*
X67787500Y-85653000D03*
%TD*%
D12*
%TO.C,MX4*%
X160655000Y-107950000D03*
X150495000Y-107950000D03*
D13*
X155575000Y-107950000D03*
%TD*%
%TO.C,MX3*%
X155575000Y-88900000D03*
D12*
X150495000Y-88900000D03*
X160655000Y-88900000D03*
%TD*%
%TO.C,MX2*%
X141605000Y-107950000D03*
X131445000Y-107950000D03*
D13*
X136525000Y-107950000D03*
%TD*%
%TO.C,MX1*%
X136525000Y-88900000D03*
D12*
X131445000Y-88900000D03*
X141605000Y-88900000D03*
%TD*%
M02*
