%TF.GenerationSoftware,KiCad,Pcbnew,(5.1.10)-1*%
%TF.CreationDate,2021-05-12T23:01:37-04:00*%
%TF.ProjectId,SwagPad,53776167-5061-4642-9e6b-696361645f70,rev?*%
%TF.SameCoordinates,Original*%
%TF.FileFunction,Legend,Bot*%
%TF.FilePolarity,Positive*%
%FSLAX46Y46*%
G04 Gerber Fmt 4.6, Leading zero omitted, Abs format (unit mm)*
G04 Created by KiCad (PCBNEW (5.1.10)-1) date 2021-05-12 23:01:37*
%MOMM*%
%LPD*%
G01*
G04 APERTURE LIST*
%ADD10C,0.120000*%
%ADD11C,0.150000*%
%ADD12R,1.400000X1.200000*%
%ADD13O,1.700000X2.700000*%
%ADD14R,0.500000X2.250000*%
%ADD15R,0.550000X1.500000*%
%ADD16R,1.500000X0.550000*%
%ADD17R,1.800000X1.100000*%
%ADD18C,1.750000*%
%ADD19C,2.250000*%
%ADD20C,3.987800*%
%ADD21R,1.200000X0.900000*%
G04 APERTURE END LIST*
D10*
%TO.C,Y1*%
X118586000Y-86329250D02*
X118586000Y-89629250D01*
X118586000Y-89629250D02*
X114586000Y-89629250D01*
D11*
%TO.C,USB1*%
X67587500Y-86603000D02*
X75287500Y-86603000D01*
X75287500Y-81153000D02*
X75287500Y-86603000D01*
X67587500Y-81153000D02*
X67587500Y-86603000D01*
%TO.C,U1*%
X111332500Y-104456750D02*
X111332500Y-103881750D01*
X121682500Y-104456750D02*
X121682500Y-103781750D01*
X121682500Y-94106750D02*
X121682500Y-94781750D01*
X111332500Y-94106750D02*
X111332500Y-94781750D01*
X111332500Y-104456750D02*
X112007500Y-104456750D01*
X111332500Y-94106750D02*
X112007500Y-94106750D01*
X121682500Y-94106750D02*
X121007500Y-94106750D01*
X121682500Y-104456750D02*
X121007500Y-104456750D01*
X111332500Y-103881750D02*
X110057500Y-103881750D01*
%TO.C,SW1*%
X87443750Y-109800000D02*
G75*
G03*
X87443750Y-109800000I-1000000J0D01*
G01*
X89043750Y-112400000D02*
X89043750Y-107200000D01*
X83843750Y-112400000D02*
X89043750Y-112400000D01*
X83843750Y-107200000D02*
X83843750Y-112400000D01*
X89043750Y-107200000D02*
X83843750Y-107200000D01*
D10*
%TO.C,R4*%
X126147500Y-105120814D02*
X126147500Y-104666686D01*
X124677500Y-105120814D02*
X124677500Y-104666686D01*
%TO.C,R3*%
X105065500Y-90960314D02*
X105065500Y-90506186D01*
X103595500Y-90960314D02*
X103595500Y-90506186D01*
%TO.C,R2*%
X74553750Y-91627064D02*
X74553750Y-91172936D01*
X73083750Y-91627064D02*
X73083750Y-91172936D01*
%TO.C,R1*%
X70585000Y-91627064D02*
X70585000Y-91172936D01*
X69115000Y-91627064D02*
X69115000Y-91172936D01*
%TO.C,F1*%
X67585000Y-98839564D02*
X67585000Y-97635436D01*
X65765000Y-98839564D02*
X65765000Y-97635436D01*
%TO.C,D4*%
X164512500Y-110262500D02*
X162512500Y-110262500D01*
X162512500Y-110262500D02*
X162512500Y-106362500D01*
X164512500Y-110262500D02*
X164512500Y-106362500D01*
%TO.C,D3*%
X164512500Y-91150000D02*
X162512500Y-91150000D01*
X162512500Y-91150000D02*
X162512500Y-87250000D01*
X164512500Y-91150000D02*
X164512500Y-87250000D01*
%TO.C,D2*%
X145462500Y-110137500D02*
X143462500Y-110137500D01*
X143462500Y-110137500D02*
X143462500Y-106237500D01*
X145462500Y-110137500D02*
X145462500Y-106237500D01*
%TO.C,D1*%
X145462500Y-91150000D02*
X143462500Y-91150000D01*
X143462500Y-91150000D02*
X143462500Y-87250000D01*
X145462500Y-91150000D02*
X145462500Y-87250000D01*
%TO.C,C7*%
X112607498Y-109478750D02*
X113130002Y-109478750D01*
X112607498Y-108008750D02*
X113130002Y-108008750D01*
%TO.C,C6*%
X108177000Y-91037002D02*
X108177000Y-90514498D01*
X106707000Y-91037002D02*
X106707000Y-90514498D01*
%TO.C,C5*%
X106623752Y-97467750D02*
X106101248Y-97467750D01*
X106623752Y-98937750D02*
X106101248Y-98937750D01*
%TO.C,C4*%
X111977500Y-87715498D02*
X111977500Y-88238002D01*
X113447500Y-87715498D02*
X113447500Y-88238002D01*
%TO.C,C3*%
X121448500Y-88243002D02*
X121448500Y-87720498D01*
X119978500Y-88243002D02*
X119978500Y-87720498D01*
%TO.C,C2*%
X120532752Y-108008750D02*
X120010248Y-108008750D01*
X120532752Y-109478750D02*
X120010248Y-109478750D01*
%TO.C,C1*%
X126655500Y-95482002D02*
X126655500Y-94959498D01*
X125185500Y-95482002D02*
X125185500Y-94959498D01*
%TO.C,Y1*%
D11*
X117062190Y-85505440D02*
X117062190Y-85981630D01*
X117395523Y-84981630D02*
X117062190Y-85505440D01*
X116728857Y-84981630D01*
X115871714Y-85981630D02*
X116443142Y-85981630D01*
X116157428Y-85981630D02*
X116157428Y-84981630D01*
X116252666Y-85124488D01*
X116347904Y-85219726D01*
X116443142Y-85267345D01*
%TO.C,USB1*%
X73175595Y-82637380D02*
X73175595Y-83446904D01*
X73127976Y-83542142D01*
X73080357Y-83589761D01*
X72985119Y-83637380D01*
X72794642Y-83637380D01*
X72699404Y-83589761D01*
X72651785Y-83542142D01*
X72604166Y-83446904D01*
X72604166Y-82637380D01*
X72175595Y-83589761D02*
X72032738Y-83637380D01*
X71794642Y-83637380D01*
X71699404Y-83589761D01*
X71651785Y-83542142D01*
X71604166Y-83446904D01*
X71604166Y-83351666D01*
X71651785Y-83256428D01*
X71699404Y-83208809D01*
X71794642Y-83161190D01*
X71985119Y-83113571D01*
X72080357Y-83065952D01*
X72127976Y-83018333D01*
X72175595Y-82923095D01*
X72175595Y-82827857D01*
X72127976Y-82732619D01*
X72080357Y-82685000D01*
X71985119Y-82637380D01*
X71747023Y-82637380D01*
X71604166Y-82685000D01*
X70842261Y-83113571D02*
X70699404Y-83161190D01*
X70651785Y-83208809D01*
X70604166Y-83304047D01*
X70604166Y-83446904D01*
X70651785Y-83542142D01*
X70699404Y-83589761D01*
X70794642Y-83637380D01*
X71175595Y-83637380D01*
X71175595Y-82637380D01*
X70842261Y-82637380D01*
X70747023Y-82685000D01*
X70699404Y-82732619D01*
X70651785Y-82827857D01*
X70651785Y-82923095D01*
X70699404Y-83018333D01*
X70747023Y-83065952D01*
X70842261Y-83113571D01*
X71175595Y-83113571D01*
X69651785Y-83637380D02*
X70223214Y-83637380D01*
X69937500Y-83637380D02*
X69937500Y-82637380D01*
X70032738Y-82780238D01*
X70127976Y-82875476D01*
X70223214Y-82923095D01*
%TO.C,U1*%
X117269404Y-106184130D02*
X117269404Y-106993654D01*
X117221785Y-107088892D01*
X117174166Y-107136511D01*
X117078928Y-107184130D01*
X116888452Y-107184130D01*
X116793214Y-107136511D01*
X116745595Y-107088892D01*
X116697976Y-106993654D01*
X116697976Y-106184130D01*
X115697976Y-107184130D02*
X116269404Y-107184130D01*
X115983690Y-107184130D02*
X115983690Y-106184130D01*
X116078928Y-106326988D01*
X116174166Y-106422226D01*
X116269404Y-106469845D01*
%TO.C,SW1*%
X87777083Y-114268761D02*
X87634226Y-114316380D01*
X87396130Y-114316380D01*
X87300892Y-114268761D01*
X87253273Y-114221142D01*
X87205654Y-114125904D01*
X87205654Y-114030666D01*
X87253273Y-113935428D01*
X87300892Y-113887809D01*
X87396130Y-113840190D01*
X87586607Y-113792571D01*
X87681845Y-113744952D01*
X87729464Y-113697333D01*
X87777083Y-113602095D01*
X87777083Y-113506857D01*
X87729464Y-113411619D01*
X87681845Y-113364000D01*
X87586607Y-113316380D01*
X87348511Y-113316380D01*
X87205654Y-113364000D01*
X86872321Y-113316380D02*
X86634226Y-114316380D01*
X86443750Y-113602095D01*
X86253273Y-114316380D01*
X86015178Y-113316380D01*
X85110416Y-114316380D02*
X85681845Y-114316380D01*
X85396130Y-114316380D02*
X85396130Y-113316380D01*
X85491369Y-113459238D01*
X85586607Y-113554476D01*
X85681845Y-113602095D01*
%TO.C,R4*%
X127514880Y-104727083D02*
X127038690Y-104393750D01*
X127514880Y-104155654D02*
X126514880Y-104155654D01*
X126514880Y-104536607D01*
X126562500Y-104631845D01*
X126610119Y-104679464D01*
X126705357Y-104727083D01*
X126848214Y-104727083D01*
X126943452Y-104679464D01*
X126991071Y-104631845D01*
X127038690Y-104536607D01*
X127038690Y-104155654D01*
X126848214Y-105584226D02*
X127514880Y-105584226D01*
X126467261Y-105346130D02*
X127181547Y-105108035D01*
X127181547Y-105727083D01*
%TO.C,R3*%
X106432880Y-90566583D02*
X105956690Y-90233250D01*
X106432880Y-89995154D02*
X105432880Y-89995154D01*
X105432880Y-90376107D01*
X105480500Y-90471345D01*
X105528119Y-90518964D01*
X105623357Y-90566583D01*
X105766214Y-90566583D01*
X105861452Y-90518964D01*
X105909071Y-90471345D01*
X105956690Y-90376107D01*
X105956690Y-89995154D01*
X105432880Y-90899916D02*
X105432880Y-91518964D01*
X105813833Y-91185630D01*
X105813833Y-91328488D01*
X105861452Y-91423726D01*
X105909071Y-91471345D01*
X106004309Y-91518964D01*
X106242404Y-91518964D01*
X106337642Y-91471345D01*
X106385261Y-91423726D01*
X106432880Y-91328488D01*
X106432880Y-91042773D01*
X106385261Y-90947535D01*
X106337642Y-90899916D01*
%TO.C,R2*%
X75921130Y-91233333D02*
X75444940Y-90900000D01*
X75921130Y-90661904D02*
X74921130Y-90661904D01*
X74921130Y-91042857D01*
X74968750Y-91138095D01*
X75016369Y-91185714D01*
X75111607Y-91233333D01*
X75254464Y-91233333D01*
X75349702Y-91185714D01*
X75397321Y-91138095D01*
X75444940Y-91042857D01*
X75444940Y-90661904D01*
X75016369Y-91614285D02*
X74968750Y-91661904D01*
X74921130Y-91757142D01*
X74921130Y-91995238D01*
X74968750Y-92090476D01*
X75016369Y-92138095D01*
X75111607Y-92185714D01*
X75206845Y-92185714D01*
X75349702Y-92138095D01*
X75921130Y-91566666D01*
X75921130Y-92185714D01*
%TO.C,R1*%
X71952380Y-91233333D02*
X71476190Y-90900000D01*
X71952380Y-90661904D02*
X70952380Y-90661904D01*
X70952380Y-91042857D01*
X71000000Y-91138095D01*
X71047619Y-91185714D01*
X71142857Y-91233333D01*
X71285714Y-91233333D01*
X71380952Y-91185714D01*
X71428571Y-91138095D01*
X71476190Y-91042857D01*
X71476190Y-90661904D01*
X71952380Y-92185714D02*
X71952380Y-91614285D01*
X71952380Y-91900000D02*
X70952380Y-91900000D01*
X71095238Y-91804761D01*
X71190476Y-91709523D01*
X71238095Y-91614285D01*
%TO.C,F1*%
X68423571Y-97904166D02*
X68423571Y-97570833D01*
X68947380Y-97570833D02*
X67947380Y-97570833D01*
X67947380Y-98047023D01*
X68947380Y-98951785D02*
X68947380Y-98380357D01*
X68947380Y-98666071D02*
X67947380Y-98666071D01*
X68090238Y-98570833D01*
X68185476Y-98475595D01*
X68233095Y-98380357D01*
%TO.C,D4*%
X165964880Y-107274404D02*
X164964880Y-107274404D01*
X164964880Y-107512500D01*
X165012500Y-107655357D01*
X165107738Y-107750595D01*
X165202976Y-107798214D01*
X165393452Y-107845833D01*
X165536309Y-107845833D01*
X165726785Y-107798214D01*
X165822023Y-107750595D01*
X165917261Y-107655357D01*
X165964880Y-107512500D01*
X165964880Y-107274404D01*
X165298214Y-108702976D02*
X165964880Y-108702976D01*
X164917261Y-108464880D02*
X165631547Y-108226785D01*
X165631547Y-108845833D01*
%TO.C,D3*%
X165964880Y-88161904D02*
X164964880Y-88161904D01*
X164964880Y-88400000D01*
X165012500Y-88542857D01*
X165107738Y-88638095D01*
X165202976Y-88685714D01*
X165393452Y-88733333D01*
X165536309Y-88733333D01*
X165726785Y-88685714D01*
X165822023Y-88638095D01*
X165917261Y-88542857D01*
X165964880Y-88400000D01*
X165964880Y-88161904D01*
X164964880Y-89066666D02*
X164964880Y-89685714D01*
X165345833Y-89352380D01*
X165345833Y-89495238D01*
X165393452Y-89590476D01*
X165441071Y-89638095D01*
X165536309Y-89685714D01*
X165774404Y-89685714D01*
X165869642Y-89638095D01*
X165917261Y-89590476D01*
X165964880Y-89495238D01*
X165964880Y-89209523D01*
X165917261Y-89114285D01*
X165869642Y-89066666D01*
%TO.C,D2*%
X146914880Y-107149404D02*
X145914880Y-107149404D01*
X145914880Y-107387500D01*
X145962500Y-107530357D01*
X146057738Y-107625595D01*
X146152976Y-107673214D01*
X146343452Y-107720833D01*
X146486309Y-107720833D01*
X146676785Y-107673214D01*
X146772023Y-107625595D01*
X146867261Y-107530357D01*
X146914880Y-107387500D01*
X146914880Y-107149404D01*
X146010119Y-108101785D02*
X145962500Y-108149404D01*
X145914880Y-108244642D01*
X145914880Y-108482738D01*
X145962500Y-108577976D01*
X146010119Y-108625595D01*
X146105357Y-108673214D01*
X146200595Y-108673214D01*
X146343452Y-108625595D01*
X146914880Y-108054166D01*
X146914880Y-108673214D01*
%TO.C,D1*%
X146010119Y-89638095D02*
X147010119Y-89638095D01*
X147010119Y-89400000D01*
X146962500Y-89257142D01*
X146867261Y-89161904D01*
X146772023Y-89114285D01*
X146581547Y-89066666D01*
X146438690Y-89066666D01*
X146248214Y-89114285D01*
X146152976Y-89161904D01*
X146057738Y-89257142D01*
X146010119Y-89400000D01*
X146010119Y-89638095D01*
X146010119Y-88114285D02*
X146010119Y-88685714D01*
X146010119Y-88400000D02*
X147010119Y-88400000D01*
X146867261Y-88495238D01*
X146772023Y-88590476D01*
X146724404Y-88685714D01*
%TO.C,C7*%
X113035416Y-110780892D02*
X113083035Y-110828511D01*
X113225892Y-110876130D01*
X113321130Y-110876130D01*
X113463988Y-110828511D01*
X113559226Y-110733273D01*
X113606845Y-110638035D01*
X113654464Y-110447559D01*
X113654464Y-110304702D01*
X113606845Y-110114226D01*
X113559226Y-110018988D01*
X113463988Y-109923750D01*
X113321130Y-109876130D01*
X113225892Y-109876130D01*
X113083035Y-109923750D01*
X113035416Y-109971369D01*
X112702083Y-109876130D02*
X112035416Y-109876130D01*
X112463988Y-110876130D01*
%TO.C,C6*%
X109479142Y-90609083D02*
X109526761Y-90561464D01*
X109574380Y-90418607D01*
X109574380Y-90323369D01*
X109526761Y-90180511D01*
X109431523Y-90085273D01*
X109336285Y-90037654D01*
X109145809Y-89990035D01*
X109002952Y-89990035D01*
X108812476Y-90037654D01*
X108717238Y-90085273D01*
X108622000Y-90180511D01*
X108574380Y-90323369D01*
X108574380Y-90418607D01*
X108622000Y-90561464D01*
X108669619Y-90609083D01*
X108574380Y-91466226D02*
X108574380Y-91275750D01*
X108622000Y-91180511D01*
X108669619Y-91132892D01*
X108812476Y-91037654D01*
X109002952Y-90990035D01*
X109383904Y-90990035D01*
X109479142Y-91037654D01*
X109526761Y-91085273D01*
X109574380Y-91180511D01*
X109574380Y-91370988D01*
X109526761Y-91466226D01*
X109479142Y-91513845D01*
X109383904Y-91561464D01*
X109145809Y-91561464D01*
X109050571Y-91513845D01*
X109002952Y-91466226D01*
X108955333Y-91370988D01*
X108955333Y-91180511D01*
X109002952Y-91085273D01*
X109050571Y-91037654D01*
X109145809Y-90990035D01*
%TO.C,C5*%
X106529166Y-96879892D02*
X106576785Y-96927511D01*
X106719642Y-96975130D01*
X106814880Y-96975130D01*
X106957738Y-96927511D01*
X107052976Y-96832273D01*
X107100595Y-96737035D01*
X107148214Y-96546559D01*
X107148214Y-96403702D01*
X107100595Y-96213226D01*
X107052976Y-96117988D01*
X106957738Y-96022750D01*
X106814880Y-95975130D01*
X106719642Y-95975130D01*
X106576785Y-96022750D01*
X106529166Y-96070369D01*
X105624404Y-95975130D02*
X106100595Y-95975130D01*
X106148214Y-96451321D01*
X106100595Y-96403702D01*
X106005357Y-96356083D01*
X105767261Y-96356083D01*
X105672023Y-96403702D01*
X105624404Y-96451321D01*
X105576785Y-96546559D01*
X105576785Y-96784654D01*
X105624404Y-96879892D01*
X105672023Y-96927511D01*
X105767261Y-96975130D01*
X106005357Y-96975130D01*
X106100595Y-96927511D01*
X106148214Y-96879892D01*
%TO.C,C4*%
X111389642Y-87810083D02*
X111437261Y-87762464D01*
X111484880Y-87619607D01*
X111484880Y-87524369D01*
X111437261Y-87381511D01*
X111342023Y-87286273D01*
X111246785Y-87238654D01*
X111056309Y-87191035D01*
X110913452Y-87191035D01*
X110722976Y-87238654D01*
X110627738Y-87286273D01*
X110532500Y-87381511D01*
X110484880Y-87524369D01*
X110484880Y-87619607D01*
X110532500Y-87762464D01*
X110580119Y-87810083D01*
X110818214Y-88667226D02*
X111484880Y-88667226D01*
X110437261Y-88429130D02*
X111151547Y-88191035D01*
X111151547Y-88810083D01*
%TO.C,C3*%
X122750642Y-87815083D02*
X122798261Y-87767464D01*
X122845880Y-87624607D01*
X122845880Y-87529369D01*
X122798261Y-87386511D01*
X122703023Y-87291273D01*
X122607785Y-87243654D01*
X122417309Y-87196035D01*
X122274452Y-87196035D01*
X122083976Y-87243654D01*
X121988738Y-87291273D01*
X121893500Y-87386511D01*
X121845880Y-87529369D01*
X121845880Y-87624607D01*
X121893500Y-87767464D01*
X121941119Y-87815083D01*
X121845880Y-88148416D02*
X121845880Y-88767464D01*
X122226833Y-88434130D01*
X122226833Y-88576988D01*
X122274452Y-88672226D01*
X122322071Y-88719845D01*
X122417309Y-88767464D01*
X122655404Y-88767464D01*
X122750642Y-88719845D01*
X122798261Y-88672226D01*
X122845880Y-88576988D01*
X122845880Y-88291273D01*
X122798261Y-88196035D01*
X122750642Y-88148416D01*
%TO.C,C2*%
X120438166Y-107420892D02*
X120485785Y-107468511D01*
X120628642Y-107516130D01*
X120723880Y-107516130D01*
X120866738Y-107468511D01*
X120961976Y-107373273D01*
X121009595Y-107278035D01*
X121057214Y-107087559D01*
X121057214Y-106944702D01*
X121009595Y-106754226D01*
X120961976Y-106658988D01*
X120866738Y-106563750D01*
X120723880Y-106516130D01*
X120628642Y-106516130D01*
X120485785Y-106563750D01*
X120438166Y-106611369D01*
X120057214Y-106611369D02*
X120009595Y-106563750D01*
X119914357Y-106516130D01*
X119676261Y-106516130D01*
X119581023Y-106563750D01*
X119533404Y-106611369D01*
X119485785Y-106706607D01*
X119485785Y-106801845D01*
X119533404Y-106944702D01*
X120104833Y-107516130D01*
X119485785Y-107516130D01*
%TO.C,C1*%
X127957642Y-95054083D02*
X128005261Y-95006464D01*
X128052880Y-94863607D01*
X128052880Y-94768369D01*
X128005261Y-94625511D01*
X127910023Y-94530273D01*
X127814785Y-94482654D01*
X127624309Y-94435035D01*
X127481452Y-94435035D01*
X127290976Y-94482654D01*
X127195738Y-94530273D01*
X127100500Y-94625511D01*
X127052880Y-94768369D01*
X127052880Y-94863607D01*
X127100500Y-95006464D01*
X127148119Y-95054083D01*
X128052880Y-96006464D02*
X128052880Y-95435035D01*
X128052880Y-95720750D02*
X127052880Y-95720750D01*
X127195738Y-95625511D01*
X127290976Y-95530273D01*
X127338595Y-95435035D01*
%TD*%
%LPC*%
D12*
%TO.C,Y1*%
X117686000Y-87129250D03*
X115486000Y-87129250D03*
X115486000Y-88829250D03*
X117686000Y-88829250D03*
%TD*%
D13*
%TO.C,USB1*%
X67787500Y-81153000D03*
X75087500Y-81153000D03*
X75087500Y-85653000D03*
X67787500Y-85653000D03*
D14*
X69837500Y-85653000D03*
X70637500Y-85653000D03*
X71437500Y-85653000D03*
X72237500Y-85653000D03*
X73037500Y-85653000D03*
%TD*%
D15*
%TO.C,U1*%
X112507500Y-104981750D03*
X113307500Y-104981750D03*
X114107500Y-104981750D03*
X114907500Y-104981750D03*
X115707500Y-104981750D03*
X116507500Y-104981750D03*
X117307500Y-104981750D03*
X118107500Y-104981750D03*
X118907500Y-104981750D03*
X119707500Y-104981750D03*
X120507500Y-104981750D03*
D16*
X122207500Y-103281750D03*
X122207500Y-102481750D03*
X122207500Y-101681750D03*
X122207500Y-100881750D03*
X122207500Y-100081750D03*
X122207500Y-99281750D03*
X122207500Y-98481750D03*
X122207500Y-97681750D03*
X122207500Y-96881750D03*
X122207500Y-96081750D03*
X122207500Y-95281750D03*
D15*
X120507500Y-93581750D03*
X119707500Y-93581750D03*
X118907500Y-93581750D03*
X118107500Y-93581750D03*
X117307500Y-93581750D03*
X116507500Y-93581750D03*
X115707500Y-93581750D03*
X114907500Y-93581750D03*
X114107500Y-93581750D03*
X113307500Y-93581750D03*
X112507500Y-93581750D03*
D16*
X110807500Y-95281750D03*
X110807500Y-96081750D03*
X110807500Y-96881750D03*
X110807500Y-97681750D03*
X110807500Y-98481750D03*
X110807500Y-99281750D03*
X110807500Y-100081750D03*
X110807500Y-100881750D03*
X110807500Y-101681750D03*
X110807500Y-102481750D03*
X110807500Y-103281750D03*
%TD*%
D17*
%TO.C,SW1*%
X89543750Y-111650000D03*
X83343750Y-107950000D03*
X89543750Y-107950000D03*
X83343750Y-111650000D03*
%TD*%
%TO.C,R4*%
G36*
G01*
X125862501Y-104493750D02*
X124962499Y-104493750D01*
G75*
G02*
X124712500Y-104243751I0J249999D01*
G01*
X124712500Y-103718749D01*
G75*
G02*
X124962499Y-103468750I249999J0D01*
G01*
X125862501Y-103468750D01*
G75*
G02*
X126112500Y-103718749I0J-249999D01*
G01*
X126112500Y-104243751D01*
G75*
G02*
X125862501Y-104493750I-249999J0D01*
G01*
G37*
G36*
G01*
X125862501Y-106318750D02*
X124962499Y-106318750D01*
G75*
G02*
X124712500Y-106068751I0J249999D01*
G01*
X124712500Y-105543749D01*
G75*
G02*
X124962499Y-105293750I249999J0D01*
G01*
X125862501Y-105293750D01*
G75*
G02*
X126112500Y-105543749I0J-249999D01*
G01*
X126112500Y-106068751D01*
G75*
G02*
X125862501Y-106318750I-249999J0D01*
G01*
G37*
%TD*%
%TO.C,R3*%
G36*
G01*
X104780501Y-90333250D02*
X103880499Y-90333250D01*
G75*
G02*
X103630500Y-90083251I0J249999D01*
G01*
X103630500Y-89558249D01*
G75*
G02*
X103880499Y-89308250I249999J0D01*
G01*
X104780501Y-89308250D01*
G75*
G02*
X105030500Y-89558249I0J-249999D01*
G01*
X105030500Y-90083251D01*
G75*
G02*
X104780501Y-90333250I-249999J0D01*
G01*
G37*
G36*
G01*
X104780501Y-92158250D02*
X103880499Y-92158250D01*
G75*
G02*
X103630500Y-91908251I0J249999D01*
G01*
X103630500Y-91383249D01*
G75*
G02*
X103880499Y-91133250I249999J0D01*
G01*
X104780501Y-91133250D01*
G75*
G02*
X105030500Y-91383249I0J-249999D01*
G01*
X105030500Y-91908251D01*
G75*
G02*
X104780501Y-92158250I-249999J0D01*
G01*
G37*
%TD*%
%TO.C,R2*%
G36*
G01*
X74268751Y-91000000D02*
X73368749Y-91000000D01*
G75*
G02*
X73118750Y-90750001I0J249999D01*
G01*
X73118750Y-90224999D01*
G75*
G02*
X73368749Y-89975000I249999J0D01*
G01*
X74268751Y-89975000D01*
G75*
G02*
X74518750Y-90224999I0J-249999D01*
G01*
X74518750Y-90750001D01*
G75*
G02*
X74268751Y-91000000I-249999J0D01*
G01*
G37*
G36*
G01*
X74268751Y-92825000D02*
X73368749Y-92825000D01*
G75*
G02*
X73118750Y-92575001I0J249999D01*
G01*
X73118750Y-92049999D01*
G75*
G02*
X73368749Y-91800000I249999J0D01*
G01*
X74268751Y-91800000D01*
G75*
G02*
X74518750Y-92049999I0J-249999D01*
G01*
X74518750Y-92575001D01*
G75*
G02*
X74268751Y-92825000I-249999J0D01*
G01*
G37*
%TD*%
%TO.C,R1*%
G36*
G01*
X70300001Y-91000000D02*
X69399999Y-91000000D01*
G75*
G02*
X69150000Y-90750001I0J249999D01*
G01*
X69150000Y-90224999D01*
G75*
G02*
X69399999Y-89975000I249999J0D01*
G01*
X70300001Y-89975000D01*
G75*
G02*
X70550000Y-90224999I0J-249999D01*
G01*
X70550000Y-90750001D01*
G75*
G02*
X70300001Y-91000000I-249999J0D01*
G01*
G37*
G36*
G01*
X70300001Y-92825000D02*
X69399999Y-92825000D01*
G75*
G02*
X69150000Y-92575001I0J249999D01*
G01*
X69150000Y-92049999D01*
G75*
G02*
X69399999Y-91800000I249999J0D01*
G01*
X70300001Y-91800000D01*
G75*
G02*
X70550000Y-92049999I0J-249999D01*
G01*
X70550000Y-92575001D01*
G75*
G02*
X70300001Y-92825000I-249999J0D01*
G01*
G37*
%TD*%
D18*
%TO.C,MX4*%
X160655000Y-107950000D03*
X150495000Y-107950000D03*
D19*
X153075000Y-103950000D03*
D20*
X155575000Y-107950000D03*
G36*
G01*
X151013688Y-106247350D02*
X151013683Y-106247345D01*
G75*
G02*
X150927655Y-104658683I751317J837345D01*
G01*
X152237657Y-103198683D01*
G75*
G02*
X153826319Y-103112655I837345J-751317D01*
G01*
X153826319Y-103112655D01*
G75*
G02*
X153912347Y-104701317I-751317J-837345D01*
G01*
X152602345Y-106161317D01*
G75*
G02*
X151013683Y-106247345I-837345J751317D01*
G01*
G37*
D19*
X158115000Y-102870000D03*
G36*
G01*
X157998483Y-104572395D02*
X157997597Y-104572334D01*
G75*
G02*
X156952666Y-103372597I77403J1122334D01*
G01*
X156992666Y-102792597D01*
G75*
G02*
X158192403Y-101747666I1122334J-77403D01*
G01*
X158192403Y-101747666D01*
G75*
G02*
X159237334Y-102947403I-77403J-1122334D01*
G01*
X159197334Y-103527403D01*
G75*
G02*
X157997597Y-104572334I-1122334J77403D01*
G01*
G37*
%TD*%
%TO.C,MX3*%
G36*
G01*
X157998483Y-85522395D02*
X157997597Y-85522334D01*
G75*
G02*
X156952666Y-84322597I77403J1122334D01*
G01*
X156992666Y-83742597D01*
G75*
G02*
X158192403Y-82697666I1122334J-77403D01*
G01*
X158192403Y-82697666D01*
G75*
G02*
X159237334Y-83897403I-77403J-1122334D01*
G01*
X159197334Y-84477403D01*
G75*
G02*
X157997597Y-85522334I-1122334J77403D01*
G01*
G37*
X158115000Y-83820000D03*
G36*
G01*
X151013688Y-87197350D02*
X151013683Y-87197345D01*
G75*
G02*
X150927655Y-85608683I751317J837345D01*
G01*
X152237657Y-84148683D01*
G75*
G02*
X153826319Y-84062655I837345J-751317D01*
G01*
X153826319Y-84062655D01*
G75*
G02*
X153912347Y-85651317I-751317J-837345D01*
G01*
X152602345Y-87111317D01*
G75*
G02*
X151013683Y-87197345I-837345J751317D01*
G01*
G37*
D20*
X155575000Y-88900000D03*
D19*
X153075000Y-84900000D03*
D18*
X150495000Y-88900000D03*
X160655000Y-88900000D03*
%TD*%
%TO.C,MX2*%
X141605000Y-107950000D03*
X131445000Y-107950000D03*
D19*
X134025000Y-103950000D03*
D20*
X136525000Y-107950000D03*
G36*
G01*
X131963688Y-106247350D02*
X131963683Y-106247345D01*
G75*
G02*
X131877655Y-104658683I751317J837345D01*
G01*
X133187657Y-103198683D01*
G75*
G02*
X134776319Y-103112655I837345J-751317D01*
G01*
X134776319Y-103112655D01*
G75*
G02*
X134862347Y-104701317I-751317J-837345D01*
G01*
X133552345Y-106161317D01*
G75*
G02*
X131963683Y-106247345I-837345J751317D01*
G01*
G37*
D19*
X139065000Y-102870000D03*
G36*
G01*
X138948483Y-104572395D02*
X138947597Y-104572334D01*
G75*
G02*
X137902666Y-103372597I77403J1122334D01*
G01*
X137942666Y-102792597D01*
G75*
G02*
X139142403Y-101747666I1122334J-77403D01*
G01*
X139142403Y-101747666D01*
G75*
G02*
X140187334Y-102947403I-77403J-1122334D01*
G01*
X140147334Y-103527403D01*
G75*
G02*
X138947597Y-104572334I-1122334J77403D01*
G01*
G37*
%TD*%
%TO.C,MX1*%
G36*
G01*
X138948483Y-85522395D02*
X138947597Y-85522334D01*
G75*
G02*
X137902666Y-84322597I77403J1122334D01*
G01*
X137942666Y-83742597D01*
G75*
G02*
X139142403Y-82697666I1122334J-77403D01*
G01*
X139142403Y-82697666D01*
G75*
G02*
X140187334Y-83897403I-77403J-1122334D01*
G01*
X140147334Y-84477403D01*
G75*
G02*
X138947597Y-85522334I-1122334J77403D01*
G01*
G37*
X139065000Y-83820000D03*
G36*
G01*
X131963688Y-87197350D02*
X131963683Y-87197345D01*
G75*
G02*
X131877655Y-85608683I751317J837345D01*
G01*
X133187657Y-84148683D01*
G75*
G02*
X134776319Y-84062655I837345J-751317D01*
G01*
X134776319Y-84062655D01*
G75*
G02*
X134862347Y-85651317I-751317J-837345D01*
G01*
X133552345Y-87111317D01*
G75*
G02*
X131963683Y-87197345I-837345J751317D01*
G01*
G37*
D20*
X136525000Y-88900000D03*
D19*
X134025000Y-84900000D03*
D18*
X131445000Y-88900000D03*
X141605000Y-88900000D03*
%TD*%
%TO.C,F1*%
G36*
G01*
X67300000Y-97462500D02*
X66050000Y-97462500D01*
G75*
G02*
X65800000Y-97212500I0J250000D01*
G01*
X65800000Y-96462500D01*
G75*
G02*
X66050000Y-96212500I250000J0D01*
G01*
X67300000Y-96212500D01*
G75*
G02*
X67550000Y-96462500I0J-250000D01*
G01*
X67550000Y-97212500D01*
G75*
G02*
X67300000Y-97462500I-250000J0D01*
G01*
G37*
G36*
G01*
X67300000Y-100262500D02*
X66050000Y-100262500D01*
G75*
G02*
X65800000Y-100012500I0J250000D01*
G01*
X65800000Y-99262500D01*
G75*
G02*
X66050000Y-99012500I250000J0D01*
G01*
X67300000Y-99012500D01*
G75*
G02*
X67550000Y-99262500I0J-250000D01*
G01*
X67550000Y-100012500D01*
G75*
G02*
X67300000Y-100262500I-250000J0D01*
G01*
G37*
%TD*%
D21*
%TO.C,D4*%
X163512500Y-106362500D03*
X163512500Y-109662500D03*
%TD*%
%TO.C,D3*%
X163512500Y-87250000D03*
X163512500Y-90550000D03*
%TD*%
%TO.C,D2*%
X144462500Y-106237500D03*
X144462500Y-109537500D03*
%TD*%
%TO.C,D1*%
X144462500Y-87250000D03*
X144462500Y-90550000D03*
%TD*%
%TO.C,C7*%
G36*
G01*
X113318750Y-109218750D02*
X113318750Y-108268750D01*
G75*
G02*
X113568750Y-108018750I250000J0D01*
G01*
X114068750Y-108018750D01*
G75*
G02*
X114318750Y-108268750I0J-250000D01*
G01*
X114318750Y-109218750D01*
G75*
G02*
X114068750Y-109468750I-250000J0D01*
G01*
X113568750Y-109468750D01*
G75*
G02*
X113318750Y-109218750I0J250000D01*
G01*
G37*
G36*
G01*
X111418750Y-109218750D02*
X111418750Y-108268750D01*
G75*
G02*
X111668750Y-108018750I250000J0D01*
G01*
X112168750Y-108018750D01*
G75*
G02*
X112418750Y-108268750I0J-250000D01*
G01*
X112418750Y-109218750D01*
G75*
G02*
X112168750Y-109468750I-250000J0D01*
G01*
X111668750Y-109468750D01*
G75*
G02*
X111418750Y-109218750I0J250000D01*
G01*
G37*
%TD*%
%TO.C,C6*%
G36*
G01*
X107917000Y-90325750D02*
X106967000Y-90325750D01*
G75*
G02*
X106717000Y-90075750I0J250000D01*
G01*
X106717000Y-89575750D01*
G75*
G02*
X106967000Y-89325750I250000J0D01*
G01*
X107917000Y-89325750D01*
G75*
G02*
X108167000Y-89575750I0J-250000D01*
G01*
X108167000Y-90075750D01*
G75*
G02*
X107917000Y-90325750I-250000J0D01*
G01*
G37*
G36*
G01*
X107917000Y-92225750D02*
X106967000Y-92225750D01*
G75*
G02*
X106717000Y-91975750I0J250000D01*
G01*
X106717000Y-91475750D01*
G75*
G02*
X106967000Y-91225750I250000J0D01*
G01*
X107917000Y-91225750D01*
G75*
G02*
X108167000Y-91475750I0J-250000D01*
G01*
X108167000Y-91975750D01*
G75*
G02*
X107917000Y-92225750I-250000J0D01*
G01*
G37*
%TD*%
%TO.C,C5*%
G36*
G01*
X105912500Y-97727750D02*
X105912500Y-98677750D01*
G75*
G02*
X105662500Y-98927750I-250000J0D01*
G01*
X105162500Y-98927750D01*
G75*
G02*
X104912500Y-98677750I0J250000D01*
G01*
X104912500Y-97727750D01*
G75*
G02*
X105162500Y-97477750I250000J0D01*
G01*
X105662500Y-97477750D01*
G75*
G02*
X105912500Y-97727750I0J-250000D01*
G01*
G37*
G36*
G01*
X107812500Y-97727750D02*
X107812500Y-98677750D01*
G75*
G02*
X107562500Y-98927750I-250000J0D01*
G01*
X107062500Y-98927750D01*
G75*
G02*
X106812500Y-98677750I0J250000D01*
G01*
X106812500Y-97727750D01*
G75*
G02*
X107062500Y-97477750I250000J0D01*
G01*
X107562500Y-97477750D01*
G75*
G02*
X107812500Y-97727750I0J-250000D01*
G01*
G37*
%TD*%
%TO.C,C4*%
G36*
G01*
X112237500Y-88426750D02*
X113187500Y-88426750D01*
G75*
G02*
X113437500Y-88676750I0J-250000D01*
G01*
X113437500Y-89176750D01*
G75*
G02*
X113187500Y-89426750I-250000J0D01*
G01*
X112237500Y-89426750D01*
G75*
G02*
X111987500Y-89176750I0J250000D01*
G01*
X111987500Y-88676750D01*
G75*
G02*
X112237500Y-88426750I250000J0D01*
G01*
G37*
G36*
G01*
X112237500Y-86526750D02*
X113187500Y-86526750D01*
G75*
G02*
X113437500Y-86776750I0J-250000D01*
G01*
X113437500Y-87276750D01*
G75*
G02*
X113187500Y-87526750I-250000J0D01*
G01*
X112237500Y-87526750D01*
G75*
G02*
X111987500Y-87276750I0J250000D01*
G01*
X111987500Y-86776750D01*
G75*
G02*
X112237500Y-86526750I250000J0D01*
G01*
G37*
%TD*%
%TO.C,C3*%
G36*
G01*
X121188500Y-87531750D02*
X120238500Y-87531750D01*
G75*
G02*
X119988500Y-87281750I0J250000D01*
G01*
X119988500Y-86781750D01*
G75*
G02*
X120238500Y-86531750I250000J0D01*
G01*
X121188500Y-86531750D01*
G75*
G02*
X121438500Y-86781750I0J-250000D01*
G01*
X121438500Y-87281750D01*
G75*
G02*
X121188500Y-87531750I-250000J0D01*
G01*
G37*
G36*
G01*
X121188500Y-89431750D02*
X120238500Y-89431750D01*
G75*
G02*
X119988500Y-89181750I0J250000D01*
G01*
X119988500Y-88681750D01*
G75*
G02*
X120238500Y-88431750I250000J0D01*
G01*
X121188500Y-88431750D01*
G75*
G02*
X121438500Y-88681750I0J-250000D01*
G01*
X121438500Y-89181750D01*
G75*
G02*
X121188500Y-89431750I-250000J0D01*
G01*
G37*
%TD*%
%TO.C,C2*%
G36*
G01*
X119821500Y-108268750D02*
X119821500Y-109218750D01*
G75*
G02*
X119571500Y-109468750I-250000J0D01*
G01*
X119071500Y-109468750D01*
G75*
G02*
X118821500Y-109218750I0J250000D01*
G01*
X118821500Y-108268750D01*
G75*
G02*
X119071500Y-108018750I250000J0D01*
G01*
X119571500Y-108018750D01*
G75*
G02*
X119821500Y-108268750I0J-250000D01*
G01*
G37*
G36*
G01*
X121721500Y-108268750D02*
X121721500Y-109218750D01*
G75*
G02*
X121471500Y-109468750I-250000J0D01*
G01*
X120971500Y-109468750D01*
G75*
G02*
X120721500Y-109218750I0J250000D01*
G01*
X120721500Y-108268750D01*
G75*
G02*
X120971500Y-108018750I250000J0D01*
G01*
X121471500Y-108018750D01*
G75*
G02*
X121721500Y-108268750I0J-250000D01*
G01*
G37*
%TD*%
%TO.C,C1*%
G36*
G01*
X126395500Y-94770750D02*
X125445500Y-94770750D01*
G75*
G02*
X125195500Y-94520750I0J250000D01*
G01*
X125195500Y-94020750D01*
G75*
G02*
X125445500Y-93770750I250000J0D01*
G01*
X126395500Y-93770750D01*
G75*
G02*
X126645500Y-94020750I0J-250000D01*
G01*
X126645500Y-94520750D01*
G75*
G02*
X126395500Y-94770750I-250000J0D01*
G01*
G37*
G36*
G01*
X126395500Y-96670750D02*
X125445500Y-96670750D01*
G75*
G02*
X125195500Y-96420750I0J250000D01*
G01*
X125195500Y-95920750D01*
G75*
G02*
X125445500Y-95670750I250000J0D01*
G01*
X126395500Y-95670750D01*
G75*
G02*
X126645500Y-95920750I0J-250000D01*
G01*
X126645500Y-96420750D01*
G75*
G02*
X126395500Y-96670750I-250000J0D01*
G01*
G37*
%TD*%
M02*
